<svg xmlns="http://www.w3.org/2000/svg" width="1200" height="630" viewBox="0 0 1200 630" role="img" aria-label="Truepocket instant advance app preview">
  <defs>
    <linearGradient id="bg" x1="0" y1="0" x2="1" y2="1">
      <stop offset="0%" stop-color="#020617"/>
      <stop offset="100%" stop-color="#0f172a"/>
    </linearGradient>
    <linearGradient id="accent" x1="0" y1="0" x2="1" y2="1">
      <stop offset="0%" stop-color="#10b981"/>
      <stop offset="100%" stop-color="#0ea5e9"/>
    </linearGradient>
  </defs>
  <rect width="1200" height="630" fill="url(#bg)"/>
  <circle cx="1020" cy="120" r="190" fill="#10b981" opacity="0.12"/>
  <circle cx="190" cy="520" r="220" fill="#0ea5e9" opacity="0.12"/>
  <rect x="90" y="90" width="1020" height="450" rx="36" fill="#0b1224" stroke="rgba(255,255,255,0.08)"/>
  <rect x="130" y="130" width="74" height="74" rx="18" fill="url(#accent)"/>
  <path d="M154 145h23c8 0 14 6 14 14v23c0 8-6 14-14 14h-23c-8 0-14-6-14-14v-23c0-8 6-14 14-14zm7 14v23h10c7 0 13-6 13-13s-6-10-13-10h-10zm0 8h8c3 0 5 2 5 5s-2 5-5 5h-8v-10z" fill="#ffffff"/>
  <text x="230" y="178" fill="#ffffff" font-family="Outfit, Arial, sans-serif" font-size="54" font-weight="700">Truepocket</text>
  <text x="130" y="280" fill="#ffffff" font-family="Outfit, Arial, sans-serif" font-size="78" font-weight="800">Instant advances</text>
  <text x="130" y="360" fill="url(#accent)" font-family="Outfit, Arial, sans-serif" font-size="78" font-weight="800">in Minutes</text>
  <text x="130" y="430" fill="#cbd5e1" font-family="Outfit, Arial, sans-serif" font-size="30" font-weight="400">Fast approval, secure borrowing, and flexible repayment</text>
  <text x="130" y="475" fill="#cbd5e1" font-family="Outfit, Arial, sans-serif" font-size="30" font-weight="400">for Chennai and across India.</text>
  <rect x="840" y="300" width="210" height="64" rx="32" fill="rgba(16,185,129,0.16)" stroke="#10b981"/>
  <text x="945" y="341" fill="#10b981" text-anchor="middle" font-family="Outfit, Arial, sans-serif" font-size="26" font-weight="700">5 Min Approval</text>
</svg>
